<?xml version="1.0" encoding="UTF-8" standalone="no"?>
<!-- Created with Inkscape (http://www.inkscape.org/) -->

<svg
   version="1.1"
   id="svg840"
   xml:space="preserve"
   width="1768"
   height="1585.3333"
   viewBox="0 0 1768 1585.3333"
   sodipodi:docname="faithpilot-lander.svg"
   inkscape:export-filename="/Users/ambitionphp/Documents/faithpilot-large.png"
   inkscape:export-xdpi="600"
   inkscape:export-ydpi="600"
   inkscape:version="1.1.1 (c3084ef, 2021-09-22)"
   xmlns:inkscape="http://www.inkscape.org/namespaces/inkscape"
   xmlns:sodipodi="http://sodipodi.sourceforge.net/DTD/sodipodi-0.dtd"
   xmlns="http://www.w3.org/2000/svg"
   xmlns:svg="http://www.w3.org/2000/svg"><defs
     id="defs844"><clipPath
       clipPathUnits="userSpaceOnUse"
       id="clipPath862"><path
         d="M 0,1189 H 1326 V 0 H 0 Z"
         id="path860" /></clipPath></defs><sodipodi:namedview
     id="namedview842"
     pagecolor="#ffffff"
     bordercolor="#666666"
     borderopacity="1.0"
     inkscape:pageshadow="2"
     inkscape:pageopacity="0.0"
     inkscape:pagecheckerboard="0"
     showgrid="false"
     inkscape:zoom="0.29015837"
     inkscape:cx="472.15595"
     inkscape:cy="834.02729"
     inkscape:window-width="1792"
     inkscape:window-height="974"
     inkscape:window-x="0"
     inkscape:window-y="25"
     inkscape:window-maximized="1"
     inkscape:current-layer="g846" /><g
     id="g846"
     inkscape:groupmode="layer"
     inkscape:label="logotype"
     transform="matrix(1.3333333,0,0,-1.3333333,0,1585.3333)"><g
       aria-label="FAITHPILOT"
       transform="scale(1.0000004,-0.99999959)"
       id="text850"
       style="font-weight:bold;font-size:129.554px;font-family:Montserrat;-inkscape-font-specification:Montserrat-Bold;fill:#ffcc00"><path
         d="m 334.03195,-503.62236 v -16.84202 h -68.53406 v 90.6878 h 20.98774 v -33.03627 h 41.9755 v -16.84202 h -41.9755 v -23.96749 z"
         id="path15009"
         style="fill:#ffcc00" /><path
         d="m 412.2016,-429.77658 h 22.02418 l -40.55041,-90.6878 h -20.72864 l -40.42084,90.6878 h 21.50596 l 8.03235,-19.4331 h 42.10505 z m -43.40059,-35.36824 14.38049,-34.72048 14.38049,34.72048 z"
         id="path15011"
         style="fill:#ffcc00" /><path
         d="m 443.63463,-429.77658 h 20.98775 v -90.6878 h -20.98775 z"
         id="path15013"
         style="fill:#ffcc00" /><path
         d="m 504.92987,-429.77658 h 20.98775 v -73.58667 h 29.02009 v -17.10113 h -79.02794 v 17.10113 h 29.0201 z"
         id="path15015"
         style="fill:#ffcc00" /><path
         d="m 628.28958,-520.46438 v 35.7569 h -41.19817 v -35.7569 h -20.98775 v 90.6878 h 20.98775 v -37.182 h 41.19817 v 37.182 h 20.98775 v -90.6878 z"
         id="path15017"
         style="fill:#ffcc00" /><path
         d="m 710.11505,-520.46438 h -39.25486 v 90.6878 h 20.98775 v -25.00392 h 18.26711 c 24.2266,0 39.38442,-12.56674 39.38442,-32.77717 0,-20.33997 -15.15782,-32.90671 -39.38442,-32.90671 z m -1.16598,48.58275 h -17.10113 v -31.48162 h 17.10113 c 12.82584,0 19.30354,5.82993 19.30354,15.80558 0,9.84611 -6.4777,15.67604 -19.30354,15.67604 z"
         id="path15019"
         style="fill:#ffcc00" /><path
         d="m 764.48321,-429.77658 h 20.98774 v -90.6878 h -20.98774 z"
         id="path15021"
         style="fill:#ffcc00" /><path
         d="m 806.99312,-429.77658 h 66.46121 v -17.10113 h -45.47346 v -73.58667 h -20.98775 z"
         id="path15023"
         style="fill:#ffcc00" /><path
         d="m 927.58161,-428.22193 c 28.50188,0 49.61918,-19.82176 49.61918,-46.89855 0,-27.07679 -21.1173,-46.89855 -49.61918,-46.89855 -28.63144,0 -49.61918,19.95132 -49.61918,46.89855 0,26.94723 20.98774,46.89855 49.61918,46.89855 z m 0,-17.87845 c -16.19425,0 -28.37233,-11.78942 -28.37233,-29.0201 0,-17.23068 12.17808,-29.0201 28.37233,-29.0201 16.19425,0 28.37233,11.78942 28.37233,29.0201 0,17.23068 -12.17808,29.0201 -28.37233,29.0201 z"
         id="path15025"
         style="fill:#ffcc00" /><path
         d="m 1010.4941,-429.77658 h 20.9877 v -73.58667 h 29.0201 v -17.10113 H 981.474 v 17.10113 h 29.0201 z"
         id="path15027"
         style="fill:#ffcc00" /></g><g
       aria-label="Read &amp; Write Reviews. Find Your Church."
       transform="scale(1,-1)"
       id="text854"
       style="font-weight:300;font-size:41.6956px;font-family:'Montserrat Light';-inkscape-font-specification:Montserrat-Light;fill:#302e81;stroke-width:0.926569"><path
         d="m 272.21844,-372.63547 -7.29673,-10.21542 c 4.33634,-1.29256 6.83808,-4.50312 6.83808,-9.13134 0,-6.17094 -4.41973,-9.84016 -11.75816,-9.84016 h -10.46559 v 29.18692 h 2.12647 v -9.54829 h 8.33912 c 1.0007,0 1.918,-0.0834 2.8353,-0.20848 l 6.96317,9.75677 z m -20.55593,-11.42459 v -15.84433 h 8.33912 c 6.25434,0 9.58999,2.877 9.58999,7.92216 0,5.00348 -3.33565,7.92217 -9.58999,7.92217 z"
         id="path14818" /><path
         d="m 297.34851,-383.60141 c 0,-6.46282 -4.41973,-10.96594 -10.38221,-10.96594 -5.96247,0 -10.42389,4.58651 -10.42389,11.04933 0,6.46282 4.62821,11.04933 11.21611,11.04933 3.29395,0 6.29604,-1.20917 8.21403,-3.54412 l -1.20917,-1.37596 c -1.66782,2.04309 -4.21125,3.04378 -6.96316,3.04378 -5.21195,0 -9.00625,-3.50243 -9.21473,-8.67268 h 18.72132 c 0,-0.20848 0.0417,-0.41696 0.0417,-0.58374 z m -10.38221,-9.13134 c 4.62822,0 8.04726,3.37735 8.33912,8.08895 h -16.67823 c 0.33356,-4.7533 3.7109,-8.08895 8.33911,-8.08895 z"
         id="path14820" /><path
         d="m 310.52562,-394.56735 c -3.37734,0 -6.54621,1.16747 -8.71438,3.08547 l 1.04239,1.50104 c 1.79291,-1.62612 4.50313,-2.75191 7.50521,-2.75191 4.25295,0 6.46282,2.16818 6.46282,6.21265 v 1.75121 h -7.46351 c -6.04587,0 -8.13065,2.79361 -8.13065,6.08756 0,3.71091 2.96039,6.21264 7.83878,6.21264 3.7943,0 6.46281,-1.54273 7.83877,-4.04447 v 3.87769 h 2.00139 v -13.80124 c 0,-5.37873 -3.00209,-8.13064 -8.38082,-8.13064 z m -1.16747,20.38915 c -3.836,0 -6.04587,-1.75122 -6.04587,-4.58652 0,-2.50174 1.58444,-4.37804 6.08756,-4.37804 h 7.42182 v 4.08617 c -1.25087,3.12717 -3.7943,4.87839 -7.46351,4.87839 z"
         id="path14822" /><path
         d="m 344.88019,-403.5736 v 14.2182 c -1.75122,-3.29395 -5.00347,-5.21195 -8.88116,-5.21195 -6.12926,0 -10.75747,4.50312 -10.75747,11.04933 0,6.50451 4.62821,11.04933 10.75747,11.04933 3.91938,0 7.21334,-1.91799 8.92286,-5.29534 v 5.12856 h 2.04308 v -30.93813 z m -8.75608,29.22861 c -5.00347,0 -8.75607,-3.71091 -8.75607,-9.17303 0,-5.46212 3.7526,-9.17303 8.75607,-9.17303 5.00348,0 8.75608,3.71091 8.75608,9.17303 0,5.46212 -3.7526,9.17303 -8.75608,9.17303 z"
         id="path14824" /><path
         d="m 388.97719,-373.59447 -4.33634,-4.58651 c 1.12578,-1.79291 1.9597,-4.04448 2.50174,-6.71299 l -1.70952,-0.54205 c -0.45865,2.33496 -1.16748,4.29465 -2.08478,5.92078 l -8.63099,-9.13134 c 4.96178,-2.91869 6.6713,-4.92008 6.6713,-7.79707 0,-3.46074 -2.50174,-5.54552 -6.42113,-5.54552 -4.25295,0 -6.92147,2.37665 -6.92147,5.96247 0,2.25156 0.79222,3.96108 3.75261,7.04656 l 0.0417,0.0834 c -5.54551,3.25226 -7.5469,5.79569 -7.5469,9.17303 0,4.33634 3.96108,7.29673 9.5066,7.29673 4.00277,0 7.33842,-1.41765 9.71507,-4.21125 l 4.21126,4.41973 z M 370.0057,-396.0267 c 0,-2.58513 1.8346,-4.33634 4.96177,-4.33634 2.96039,0 4.58652,1.58443 4.58652,3.96108 0,2.29326 -1.45935,3.836 -6.04586,6.50451 -2.79361,-2.96038 -3.50243,-4.29464 -3.50243,-6.12925 z m 3.87769,21.8485 c -4.46143,0 -7.54691,-2.29326 -7.54691,-5.7123 0,-2.79361 1.54274,-4.7533 6.713,-7.79708 l 9.21472,9.71508 c -2.04308,2.54343 -4.92008,3.7943 -8.38081,3.7943 z"
         id="path14826" /><path
         d="m 442.18534,-401.82239 -8.96456,26.30993 -9.08964,-26.30993 h -2.04308 l -9.13134,26.26823 -8.88116,-26.26823 H 401.824 l 9.92355,29.18692 h 2.25156 l 9.08964,-26.18483 9.04795,26.18483 h 2.25156 l 9.88186,-29.18692 z"
         id="path14828" /><path
         d="m 450.87887,-389.64727 v -4.7533 h -2.00139 v 21.7651 h 2.08478 v -11.3412 c 0,-5.37873 2.877,-8.58929 7.71369,-8.58929 0.16678,0 0.33356,0.0417 0.50034,0.0417 v -2.04308 c -4.08616,0 -6.96316,1.75121 -8.29742,4.92008 z"
         id="path14830" /><path
         d="m 465.9629,-399.69591 c 0.959,0 1.70952,-0.75052 1.70952,-1.70952 0,-0.9173 -0.75052,-1.66782 -1.70952,-1.66782 -0.959,0 -1.70952,0.79221 -1.70952,1.70952 0,0.9173 0.75052,1.66782 1.70952,1.66782 z m -1.04239,27.06044 h 2.08478 v -21.7651 h -2.08478 z"
         id="path14832" /><path
         d="m 485.75659,-375.47077 c -0.87561,0.79222 -2.08478,1.20917 -3.37735,1.20917 -2.66852,0 -4.04447,-1.54273 -4.04447,-4.33634 v -14.00972 h 6.92147 v -1.79291 h -6.92147 v -4.7533 h -2.08478 v 4.7533 h -4.00278 v 1.79291 h 4.00278 v 14.2182 c 0,3.66921 2.08478,5.92077 5.92077,5.92077 1.62613,0 3.37735,-0.50034 4.46143,-1.54273 z"
         id="path14834" /><path
         d="m 510.06121,-383.60141 c 0,-6.46282 -4.41973,-10.96594 -10.38221,-10.96594 -5.96247,0 -10.42389,4.58651 -10.42389,11.04933 0,6.46282 4.62821,11.04933 11.21611,11.04933 3.29395,0 6.29604,-1.20917 8.21403,-3.54412 l -1.20917,-1.37596 c -1.66782,2.04309 -4.21125,3.04378 -6.96316,3.04378 -5.21195,0 -9.00625,-3.50243 -9.21473,-8.67268 h 18.72132 c 0,-0.20848 0.0417,-0.41696 0.0417,-0.58374 z m -10.38221,-9.13134 c 4.62822,0 8.04726,3.37735 8.33912,8.08895 h -16.67823 c 0.33356,-4.7533 3.7109,-8.08895 8.33911,-8.08895 z"
         id="path14836" /><path
         d="m 550.65057,-372.63547 -7.29673,-10.21542 c 4.33634,-1.29256 6.83808,-4.50312 6.83808,-9.13134 0,-6.17094 -4.41973,-9.84016 -11.75816,-9.84016 h -10.4656 v 29.18692 h 2.12648 v -9.54829 h 8.33912 c 1.00069,0 1.918,-0.0834 2.8353,-0.20848 l 6.96317,9.75677 z m -20.55593,-11.42459 v -15.84433 h 8.33912 c 6.25434,0 9.58999,2.877 9.58999,7.92216 0,5.00348 -3.33565,7.92217 -9.58999,7.92217 z"
         id="path14838" /><path
         d="m 575.78063,-383.60141 c 0,-6.46282 -4.41973,-10.96594 -10.3822,-10.96594 -5.96247,0 -10.4239,4.58651 -10.4239,11.04933 0,6.46282 4.62821,11.04933 11.21611,11.04933 3.29395,0 6.29604,-1.20917 8.21404,-3.54412 l -1.20918,-1.37596 c -1.66782,2.04309 -4.21125,3.04378 -6.96316,3.04378 -5.21195,0 -9.00625,-3.50243 -9.21473,-8.67268 h 18.72132 c 0,-0.20848 0.0417,-0.41696 0.0417,-0.58374 z m -10.3822,-9.13134 c 4.62821,0 8.04725,3.37735 8.33912,8.08895 h -16.67824 c 0.33356,-4.7533 3.7109,-8.08895 8.33912,-8.08895 z"
         id="path14840" /><path
         d="m 597.20761,-394.40057 -8.75608,19.47184 -8.67268,-19.47184 h -2.20987 l 9.79847,21.7651 h 2.12647 l 9.84016,-21.7651 z"
         id="path14842" /><path
         d="m 604.89393,-399.69591 c 0.959,0 1.70952,-0.75052 1.70952,-1.70952 0,-0.9173 -0.75052,-1.66782 -1.70952,-1.66782 -0.959,0 -1.70952,0.79221 -1.70952,1.70952 0,0.9173 0.75052,1.66782 1.70952,1.66782 z m -1.04239,27.06044 h 2.08478 v -21.7651 h -2.08478 z"
         id="path14844" /><path
         d="m 633.19353,-383.60141 c 0,-6.46282 -4.41973,-10.96594 -10.3822,-10.96594 -5.96247,0 -10.4239,4.58651 -10.4239,11.04933 0,6.46282 4.62821,11.04933 11.21612,11.04933 3.29395,0 6.29603,-1.20917 8.21403,-3.54412 l -1.20917,-1.37596 c -1.66783,2.04309 -4.21126,3.04378 -6.96317,3.04378 -5.21195,0 -9.00625,-3.50243 -9.21473,-8.67268 h 18.72133 c 0,-0.20848 0.0417,-0.41696 0.0417,-0.58374 z m -10.3822,-9.13134 c 4.62821,0 8.04725,3.37735 8.33912,8.08895 h -16.67824 c 0.33356,-4.7533 3.71091,-8.08895 8.33912,-8.08895 z"
         id="path14846" /><path
         d="m 668.46345,-394.40057 -7.33843,19.38845 -7.38012,-19.38845 h -1.79291 l -7.42181,19.43015 -7.25504,-19.43015 h -2.00139 l 8.25573,21.7651 h 1.918 l 7.38012,-18.8881 7.33842,18.8881 h 1.9597 l 8.25573,-21.7651 z"
         id="path14848" /><path
         d="m 680.44963,-372.46869 c 5.54551,0 8.58929,-2.41834 8.58929,-5.96247 0,-8.29742 -14.42667,-3.66921 -14.42667,-10.21542 0,-2.33495 1.8763,-4.08617 6.12925,-4.08617 2.33495,0 4.7116,0.62544 6.54621,1.9597 l 0.959,-1.66783 c -1.70952,-1.29256 -4.71161,-2.12647 -7.46352,-2.12647 -5.50381,0 -8.25572,2.66852 -8.25572,5.96247 0,8.5476 14.42667,3.87769 14.42667,10.21542 0,2.46004 -1.8346,4.08617 -6.42112,4.08617 -3.21056,0 -6.17095,-1.20917 -7.83877,-2.62682 l -0.959,1.66782 c 1.70952,1.58443 5.12856,2.7936 8.71438,2.7936 z"
         id="path14850" /><path
         d="m 694.64763,-372.46869 c 0.959,0 1.75122,-0.79221 1.75122,-1.79291 0,-1.00069 -0.79222,-1.75121 -1.75122,-1.75121 -0.959,0 -1.75121,0.75052 -1.75121,1.75121 0,1.0007 0.79221,1.79291 1.75121,1.79291 z"
         id="path14852" /><path
         d="m 734.13466,-399.90439 v -1.918 h -19.51354 v 29.18692 h 2.12647 v -12.88394 h 15.55246 v -1.918 h -15.55246 v -12.46698 z"
         id="path14854" /><path
         d="m 740.89326,-399.69591 c 0.959,0 1.70952,-0.75052 1.70952,-1.70952 0,-0.9173 -0.75052,-1.66782 -1.70952,-1.66782 -0.959,0 -1.70952,0.79221 -1.70952,1.70952 0,0.9173 0.75052,1.66782 1.70952,1.66782 z m -1.04239,27.06044 h 2.08478 v -21.7651 h -2.08478 z"
         id="path14856" /><path
         d="m 761.39575,-394.56735 c -4.12786,0 -7.17164,1.8346 -8.63098,4.87838 v -4.7116 h -2.00139 v 21.7651 h 2.08478 v -11.59137 c 0,-5.17026 3.12717,-8.46421 8.25573,-8.46421 4.41973,0 7.04655,2.58513 7.04655,7.50521 v 12.55037 h 2.08478 v -12.71716 c 0,-6.08755 -3.54412,-9.21472 -8.83947,-9.21472 z"
         id="path14858" /><path
         d="m 796.20248,-403.5736 v 14.2182 c -1.75122,-3.29395 -5.00347,-5.21195 -8.88116,-5.21195 -6.12926,0 -10.75747,4.50312 -10.75747,11.04933 0,6.50451 4.62821,11.04933 10.75747,11.04933 3.91938,0 7.21333,-1.91799 8.92285,-5.29534 v 5.12856 h 2.04309 v -30.93813 z m -8.75608,29.22861 c -5.00347,0 -8.75607,-3.71091 -8.75607,-9.17303 0,-5.46212 3.7526,-9.17303 8.75607,-9.17303 5.00347,0 8.75608,3.71091 8.75608,9.17303 0,5.46212 -3.75261,9.17303 -8.75608,9.17303 z"
         id="path14860" /><path
         d="m 839.2988,-401.82239 h -2.20987 l -10.54899,17.17859 -10.54898,-17.17859 H 813.656 l 11.75816,19.13828 v 10.04864 h 2.12648 v -10.04864 z"
         id="path14862" /><path
         d="m 849.90838,-372.46869 c 6.25434,0 10.88255,-4.58651 10.88255,-11.04933 0,-6.46282 -4.62821,-11.04933 -10.88255,-11.04933 -6.25434,0 -10.88255,4.58651 -10.88255,11.04933 0,6.46282 4.62821,11.04933 10.88255,11.04933 z m 0,-1.8763 c -5.00347,0 -8.75608,-3.71091 -8.75608,-9.17303 0,-5.46212 3.75261,-9.17303 8.75608,-9.17303 5.00347,0 8.75607,3.71091 8.75607,9.17303 0,5.46212 -3.7526,9.17303 -8.75607,9.17303 z"
         id="path14864" /><path
         d="m 884.18801,-394.40057 v 11.59138 c 0,5.17025 -3.04377,8.4642 -7.96386,8.4642 -4.54482,0 -7.17164,-2.58512 -7.17164,-7.5052 v -12.55038 h -2.08478 v 12.71716 c 0,6.08755 3.54413,9.21472 9.08964,9.21472 3.836,0 6.79638,-1.79291 8.21404,-4.83668 v 4.6699 h 2.00138 v -21.7651 z"
         id="path14866" /><path
         d="m 897.15209,-389.64727 v -4.7533 h -2.00138 v 21.7651 h 2.08478 v -11.3412 c 0,-5.37873 2.87699,-8.58929 7.71368,-8.58929 0.16678,0 0.33357,0.0417 0.50035,0.0417 v -2.04308 c -4.08617,0 -6.96317,1.75121 -8.29743,4.92008 z"
         id="path14868" /><path
         d="m 935.35956,-372.42699 c 4.12787,0 7.83877,-1.37595 10.38221,-4.08617 l -1.33426,-1.37595 c -2.50174,2.46004 -5.54552,3.50243 -8.96456,3.50243 -7.46351,0 -13.09242,-5.50382 -13.09242,-12.84225 0,-7.33842 5.62891,-12.84224 13.09242,-12.84224 3.41904,0 6.46282,1.00069 8.96456,3.46073 l 1.33426,-1.37595 c -2.54344,-2.71022 -6.25434,-4.04447 -10.38221,-4.04447 -8.67268,0 -15.1355,6.29603 -15.1355,14.80193 0,8.50591 6.46282,14.80194 15.1355,14.80194 z"
         id="path14870" /><path
         d="m 962.87018,-394.56735 c -4.04447,0 -7.04656,1.75121 -8.5476,4.7116 v -13.71785 h -2.08478 v 30.93813 h 2.08478 v -11.59137 c 0,-5.17026 3.12717,-8.46421 8.25573,-8.46421 4.41973,0 7.04656,2.58513 7.04656,7.50521 v 12.55037 h 2.08478 v -12.71716 c 0,-6.08755 -3.54413,-9.21472 -8.83947,-9.21472 z"
         id="path14872" /><path
         d="m 997.30361,-394.40057 v 11.59138 c 0,5.17025 -3.04377,8.4642 -7.96385,8.4642 -4.54482,0 -7.17165,-2.58512 -7.17165,-7.5052 v -12.55038 h -2.08478 v 12.71716 c 0,6.08755 3.54413,9.21472 9.08964,9.21472 3.836,0 6.79639,-1.79291 8.21404,-4.83668 v 4.6699 h 2.00138 v -21.7651 z"
         id="path14874" /><path
         d="m 1010.2677,-389.64727 v -4.7533 h -2.0014 v 21.7651 h 2.0848 v -11.3412 c 0,-5.37873 2.877,-8.58929 7.7137,-8.58929 0.1668,0 0.3335,0.0417 0.5003,0.0417 v -2.04308 c -4.0861,0 -6.9631,1.75121 -8.2974,4.92008 z"
         id="path14876" /><path
         d="m 1032.7774,-372.46869 c 3.4608,0 6.4628,-1.37595 8.2558,-4.00277 l -1.5428,-1.12578 c -1.5844,2.20986 -4.0028,3.25225 -6.713,3.25225 -5.1285,0 -8.8811,-3.66921 -8.8811,-9.17303 0,-5.50382 3.7526,-9.17303 8.8811,-9.17303 2.7102,0 5.1286,1.04239 6.713,3.25226 l 1.5428,-1.12578 c -1.793,-2.66852 -4.795,-4.00278 -8.2558,-4.00278 -6.3794,0 -11.0076,4.54482 -11.0076,11.04933 0,6.46282 4.6282,11.04933 11.0076,11.04933 z"
         id="path14878" /><path
         d="m 1057.4996,-394.56735 c -4.0444,0 -7.0465,1.75121 -8.5476,4.7116 v -13.71785 h -2.0847 v 30.93813 h 2.0847 v -11.59137 c 0,-5.17026 3.1272,-8.46421 8.2558,-8.46421 4.4197,0 7.0465,2.58513 7.0465,7.50521 v 12.55037 h 2.0848 v -12.71716 c 0,-6.08755 -3.5441,-9.21472 -8.8395,-9.21472 z"
         id="path14880" /><path
         d="m 1074.7128,-372.46869 c 0.959,0 1.7512,-0.79221 1.7512,-1.79291 0,-1.00069 -0.7922,-1.75121 -1.7512,-1.75121 -0.959,0 -1.7512,0.75052 -1.7512,1.75121 0,1.0007 0.7922,1.79291 1.7512,1.79291 z"
         id="path14882" /></g><g
       id="g856"
       style="fill:#302e81;fill-opacity:1"
       transform="matrix(1.2302482,0,0,1.2302482,-152.65479,-135.43923)"><g
         id="g858"
         clip-path="url(#clipPath862)"
         style="fill:#302e81;fill-opacity:1"><g
           id="g864"
           transform="translate(508.6898,624.6211)"
           style="fill:#302e81;fill-opacity:1"><path
             d="M 0,0 C -1.628,1.859 -3.259,3.716 -4.894,5.571 -24.562,5.304 -46.475,16.82 -47.961,34.937 -49.464,53.304 -28.043,69.133 -6.7,70.465 14.691,71.839 37.877,58.8 38.701,40.432 39.163,30.597 30.808,22.112 23.429,16.135 24.622,11.271 25.811,6.408 26.994,1.543 41.183,2.277 55.454,2.863 69.738,3.36 L 43.902,138.133 H -60.845 L -73.745,-5.712 C -49.264,-3.461 -24.533,-1.534 0,0"
             style="fill:#302e81;fill-opacity:1;fill-rule:nonzero;stroke:none"
             id="path866" /></g><g
           id="g868"
           transform="translate(532.3597,616.7825)"
           style="fill:#302e81;fill-opacity:1"><path
             d="m 0,0 c -2.2,-0.136 -4.19,1.356 -4.712,3.508 -1.709,7.051 -3.432,14.1 -5.163,21.148 -0.436,1.77 0.217,3.632 1.664,4.742 9.558,7.344 14.287,13.551 14.056,18.451 -0.546,12.213 -18.619,22.371 -35.634,21.278 -17.067,-1.064 -33.674,-13.46 -32.677,-25.6 0.965,-11.802 18.249,-21.93 35.624,-20.852 1.427,0.091 2.795,-0.485 3.733,-1.548 4.195,-4.754 8.369,-9.519 12.52,-14.296 2.5,-2.877 0.603,-7.38 -3.201,-7.605 -28.04,-1.647 -56.422,-3.811 -84.46,-6.408 L -99.772,-24.161 55.464,-36.799 47.857,2.059 C 31.859,1.512 15.875,0.846 0,0"
             style="fill:#302e81;fill-opacity:1;fill-rule:nonzero;stroke:none"
             id="path870" /></g><g
           id="g872"
           transform="translate(639.9166,629.4068)"
           style="fill:#302e81;fill-opacity:1"><path
             d="m 0,0 -0.575,66.465 c -8.251,-0.087 -16.567,-0.214 -24.786,-0.377 -2.336,-0.124 -4.635,1.846 -4.687,4.504 l -0.624,31.233 c -0.053,2.539 1.969,4.639 4.503,4.689 8.371,0.169 16.843,0.298 25.246,0.384 l -0.219,25.225 c -0.021,2.538 2.019,4.614 4.557,4.636 10.568,0.092 21.367,0.121 32.097,0.084 2.534,-0.009 4.591,-2.069 4.582,-4.614 l -0.087,-25.224 c 8.434,-0.045 16.906,-0.129 25.244,-0.252 2.541,-0.037 4.567,-2.13 4.53,-4.664 L 69.32,70.853 c -0.037,-2.516 -2.089,-4.53 -4.596,-4.53 -0.022,0 -16.666,0.205 -24.855,0.247 L 39.642,0.105 C 54.88,0.024 70.19,-0.232 85.505,-0.591 l 25.413,193.945 -186.032,-23.2 32.881,-170.983 C -28.131,-0.445 -14.033,-0.147 0,0"
             style="fill:#302e81;fill-opacity:1;fill-rule:nonzero;stroke:none"
             id="path874" /></g><g
           id="g876"
           transform="translate(674.9298,620.3366)"
           style="fill:#302e81;fill-opacity:1"><path
             d="m 0,0 c -2.538,0.009 -4.59,2.074 -4.581,4.612 l 0.259,75.661 c 0.009,2.534 2.065,4.581 4.597,4.581 H 0.29 C 8.482,84.827 16.834,84.758 25.181,84.65 l 0.325,22.043 c -8.335,0.108 -16.771,0.178 -25.141,0.207 -2.538,0.009 -4.59,2.074 -4.581,4.614 l 0.087,25.217 c -7.63,0.009 -15.255,-0.008 -22.793,-0.06 l 0.219,-25.217 c 0.021,-2.538 -2.019,-4.614 -4.559,-4.636 -8.336,-0.072 -16.772,-0.186 -25.139,-0.339 l 0.44,-22.041 c 8.284,0.151 16.635,0.263 24.889,0.335 2.701,-0.055 4.617,-2.113 4.638,-4.557 L -25.78,4.557 c 0.021,-2.538 -2.019,-4.614 -4.557,-4.636 -14.992,-0.13 -30.067,-0.434 -45.148,-0.836 l 10.862,-56.485 106.244,4.316 7.672,52.423 C 32.825,-0.282 16.37,-0.056 0,0"
             style="fill:#302e81;fill-opacity:1;fill-rule:nonzero;stroke:none"
             id="path878" /></g><g
           id="g880"
           transform="translate(811.451,688.1603)"
           style="fill:#302e81;fill-opacity:1"><path
             d="m 0,0 c -3.268,0.172 -5.832,-2.202 -5.981,-5.084 -0.152,-2.976 2.259,-5.541 5.376,-5.718 3.127,-0.169 5.801,2.104 5.982,5.083 C 5.553,-2.815 3.228,-0.183 0,0"
             style="fill:#302e81;fill-opacity:1;fill-rule:nonzero;stroke:none"
             id="path882" /></g><g
           id="g884"
           transform="translate(791.1887,626.4573)"
           style="fill:#302e81;fill-opacity:1"><path
             d="m 0,0 c -7.706,14.392 -17.425,38.068 -16.604,58.086 0.83,20.14 17.998,36.032 38.622,34.861 C 42.624,91.795 57.927,74.117 56.498,53.986 55.084,34.066 42.849,11.704 33.63,-1.695 54.279,-2.994 75.067,-4.567 95.715,-6.375 L 59.639,142.621 H -29.766 L -48.206,1.892 C -32.103,1.403 -16.01,0.792 0,0"
             style="fill:#302e81;fill-opacity:1;fill-rule:nonzero;stroke:none"
             id="path886" /></g><g
           id="g888"
           transform="translate(810.3317,668.1792)"
           style="fill:#302e81;fill-opacity:1"><path
             d="m 0,0 c -8.156,0.459 -14.456,7.355 -14.044,15.37 v 0.003 c 0.199,3.848 1.903,7.398 4.797,9.995 2.977,2.673 6.872,4.025 10.881,3.793 4.041,-0.228 7.731,-2 10.392,-4.99 2.584,-2.904 3.88,-6.622 3.647,-10.466 C 15.206,5.972 8.641,-0.024 0.85,-0.024 0.569,-0.024 0.284,-0.016 0,0 m 5.509,-52.081 c -3.72,0.224 -5.643,4.555 -3.32,7.459 9.666,12.102 24.567,37.412 25.996,57.537 1.067,15.056 -10.385,28.266 -25.827,29.13 -15.355,0.864 -28.29,-10.888 -28.919,-26.06 -0.829,-20.217 11.215,-47.124 19.513,-60.276 2.011,-3.187 -0.471,-7.249 -4.131,-7.044 -19.028,1.005 -38.19,1.787 -57.368,2.362 l -4.193,-31.996 155.821,7.33 -4.192,16.095 c -24.402,2.166 -49.013,4.014 -73.38,5.463"
             style="fill:#302e81;fill-opacity:1;fill-rule:nonzero;stroke:none"
             id="path890" /></g></g></g></g></svg>
